<svg xmlns="http://www.w3.org/2000/svg" viewBox="0 0 525.752 319.2504"><defs><style>.cls-1{fill:#cb3a27;}.cls-2{fill:#e44d32;}.cls-3{fill:#d94127;}.cls-4{fill:#8c3a1e;}</style></defs><g id="Layer_4" data-name="Layer 4"><path class="cls-1" d="M499.6232,243.8316H45.2469c-8.486,0-15.4291-210.4559-15.4291-210.4559A15.3818,15.3818,0,0,1,34.35,22.4789c3.768-3.768,8.8613-4.3367,10.8968-4.5323C185.7009,4.4454,254.5235,5.5336,254.5236,5.5336s173.3836,5.1664,245.1,12.413c2.1681.2191,7.2676.9032,10.8967,4.5323a15.3813,15.3813,0,0,1,4.5323,10.8968S508.1092,243.8316,499.6232,243.8316Z"/></g><g id="Layer_1" data-name="Layer 1"><path class="cls-2" d="M491.1185,243.1565H54.8663c-8.1475,0-14.8137-202.0613-14.8137-202.0613a14.7677,14.7677,0,0,1,4.3515-10.4621c3.6177-3.6177,8.5078-4.1637,10.4622-4.3516,134.8516-12.9626,200.929-11.9178,200.9291-11.9178s166.4677,4.96,235.3231,11.9178c2.0816.21,6.9777.8672,10.4621,4.3516a14.7678,14.7678,0,0,1,4.3516,10.4621S499.266,243.1565,491.1185,243.1565Z"/></g><g id="Layer_2" data-name="Layer 2"><path class="cls-1" d="M56.6379,218.7457h432.709a6.8381,6.8381,0,0,1,6.8381,6.8381v63.8387a0,0,0,0,1,0,0H56.6379A6.8381,6.8381,0,0,1,49.8,282.5844V225.5839A6.8381,6.8381,0,0,1,56.6379,218.7457Z"/><rect class="cls-3" x="48.7107" y="167.9058" width="447.4486" height="86.1783" rx="20.4562"/><rect class="cls-2" x="54.4921" y="173.197" width="217.943" height="74.0814" rx="13.2367"/><rect class="cls-2" x="272.435" y="173.197" width="217.943" height="74.0814" rx="13.2367"/><path class="cls-4" d="M88.709,309.4792H79.5645l-3.1563-19.8657H92.3009Q90.5051,299.5464,88.709,309.4792Z"/><path class="cls-4" d="M453.1574,309.4792h-9.1445l-3.1563-19.8657h15.8927Q454.9535,299.5464,453.1574,309.4792Z"/><path class="cls-4" d="M27.2575,285.8315H496.185a0,0,0,0,1,0,0v3.7418a3.44,3.44,0,0,1-3.44,3.44H30.6976a3.44,3.44,0,0,1-3.44-3.44v-3.7418a0,0,0,0,1,0,0Z"/><path class="cls-3" d="M448.4426,284.23l47.3737,3.4392c6.8266.4956,23.2072-147.7967,23.2072-147.7967.4322-5.9523-4.8-11.2278-11.6262-11.7235L460.0236,124.71c-6.8266-.4956-12.7655,3.969-13.1977,9.9213C446.8259,134.631,441.616,283.7342,448.4426,284.23Z"/><path class="cls-3" d="M76.6861,285.8028l-47.3737,3.4393c-6.8265.4956-23.3136-149.263-23.3136-149.263-.4364-6.011,4.7919-11.3345,11.6185-11.83L64.991,124.71c6.8265-.4956,12.769,4.017,13.2054,10.028C78.1964,134.7377,83.5127,285.3072,76.6861,285.8028Z"/></g></svg>