<svg id="Layer_1" data-name="Layer 1" xmlns="http://www.w3.org/2000/svg" viewBox="0 0 532.62 360.6073"><defs><style>.cls-1{fill:#cb3a27;}.cls-2{fill:#e44d32;}.cls-3{fill:#d94127;}.cls-4{fill:#8c3a1e;}.cls-5{fill:#daa041;}.cls-6{fill:#e8bf6f;}.cls-7{fill:#231f20;}.cls-8{fill:#dea6a5;}.cls-9{fill:#fff;}.cls-10,.cls-11{fill:none;stroke-miterlimit:10;}.cls-10{stroke:#231f20;stroke-width:3px;}.cls-11{stroke:#414042;stroke-width:5px;}.cls-12{fill:#d5a44b;}</style></defs><path class="cls-1" d="M500.6639,283.7365H46.2877c-8.486,0-15.4291-210.4559-15.4291-210.4559a15.3812,15.3812,0,0,1,4.5323-10.8968c3.768-3.768,8.8613-4.3367,10.8968-4.5323C186.7417,44.35,255.5643,45.4384,255.5644,45.4384s173.3835,5.1664,245.1,12.4131c2.1681.219,7.2677.9031,10.8968,4.5323a15.3816,15.3816,0,0,1,4.5323,10.8968S509.15,283.7365,500.6639,283.7365Z"/><path class="cls-2" d="M492.1593,283.0614H55.907C47.76,283.0614,41.0934,81,41.0934,81a14.7681,14.7681,0,0,1,4.3515-10.4622c3.6177-3.6177,8.5078-4.1636,10.4621-4.3515C190.7586,53.2238,256.8361,54.2685,256.8362,54.2685s166.4677,4.96,235.3231,11.9179c2.0816.21,6.9777.8672,10.4621,4.3515A14.7681,14.7681,0,0,1,506.9729,81S500.3068,283.0614,492.1593,283.0614Z"/><path class="cls-1" d="M57.6787,258.6506h432.709a6.8381,6.8381,0,0,1,6.8381,6.8381v63.8387a0,0,0,0,1,0,0H57.6787a6.8381,6.8381,0,0,1-6.8381-6.8381V265.4887A6.8381,6.8381,0,0,1,57.6787,258.6506Z"/><rect class="cls-3" x="49.7515" y="207.8107" width="447.4486" height="86.1783" rx="20.4562"/><rect class="cls-2" x="55.5328" y="213.1019" width="217.943" height="74.0814" rx="13.2367"/><rect class="cls-2" x="273.4758" y="213.1019" width="217.943" height="74.0814" rx="13.2367"/><path class="cls-4" d="M89.75,349.384H80.6053L77.449,329.5184H93.3417Q91.5458,339.4511,89.75,349.384Z"/><path class="cls-4" d="M454.1982,349.384h-9.1446l-3.1562-19.8656H457.79Q455.9942,339.4511,454.1982,349.384Z"/><path class="cls-4" d="M28.2982,325.7364H497.2258a0,0,0,0,1,0,0v3.7418a3.44,3.44,0,0,1-3.44,3.44H31.7384a3.44,3.44,0,0,1-3.44-3.44v-3.7418a0,0,0,0,1,0,0Z"/><path class="cls-3" d="M449.4834,324.1347l47.3737,3.4393c6.8266.4956,23.2072-147.7967,23.2072-147.7967.4321-5.9523-4.8-11.2279-11.6262-11.7235l-47.3737-3.4393c-6.8266-.4956-12.7655,3.969-13.1977,9.9213C447.8667,174.5358,442.6568,323.6391,449.4834,324.1347Z"/><path class="cls-3" d="M77.7269,325.7077,30.3532,329.147C23.5266,329.6426,7.04,179.884,7.04,179.884c-.4363-6.011,4.792-11.3346,11.6185-11.83l47.3737-3.4393c6.8266-.4956,12.769,4.0171,13.2054,10.028C79.2371,174.6425,84.5535,325.2121,77.7269,325.7077Z"/><path class="cls-5" d="M236.1978,220.0667c-.4832,12.5254-1.6872,15.6063-2.8088,15.7293-.8558.0938-1.2892-1.5757-3.6514-2.5279a7.9222,7.9222,0,0,0-5.6175,0,6.6171,6.6171,0,0,0-3.6514,3.37c-.1518.3466-1.2,2.74,0,4.7749a5.6667,5.6667,0,0,0,3.37,2.2471c2.0472.7247,3.682.6942,7.303.5618,2.8514-.1044,5.1789-.2077,6.741-.2809a33.1428,33.1428,0,0,1,.8426-10.3926c.4325-1.7194,1.2123-4.156,1.9662-8.1455.2662-1.4091.4476-2.58.5618-3.37Z"/><path class="cls-5" d="M279.35,220.0667c.4832,12.5254,1.6872,15.6063,2.8088,15.7293.8558.0938,1.2893-1.5757,3.6514-2.5279a7.9226,7.9226,0,0,1,5.6176,0,6.6174,6.6174,0,0,1,3.6514,3.37c.1518.3466,1.2,2.74,0,4.7749a5.6669,5.6669,0,0,1-3.37,2.2471c-2.0472.7247-3.6819.6942-7.3029.5618-2.8515-.1044-5.179-.2077-6.7411-.2809a33.1428,33.1428,0,0,0-.8426-10.3926c-.4324-1.7194-1.2123-4.156-1.9661-8.1455-.2663-1.4091-.4477-2.58-.5618-3.37Z"/><path class="cls-5" d="M329.6646,137.2312a31.1624,31.1624,0,0,1,8.0213,5.3476,34.6938,34.6938,0,0,1,6.9519,9.2691,48.614,48.614,0,0,1,4.6345,11.4081,5.1869,5.1869,0,0,1,2.852,1.2477,6.2089,6.2089,0,0,1,.1783,8.3779c-1.1564,1.2251-3.6069,2.5937-5.7041,1.426a4.6507,4.6507,0,0,1-2.139-4.4563,2.0511,2.0511,0,0,1-2.3173-.5348,2.1949,2.1949,0,0,1,1.4261-2.852,13.6983,13.6983,0,0,0,0-4.4563c-.3556-2.1157-1.0144-2.8551-3.03-6.7736-2.8621-5.5631-2.7141-6.3666-4.4563-8.0213a30.6918,30.6918,0,0,0-3.5651-2.852c-2.0924-1.3995-3.0574-1.6125-3.565-2.6738C328.58,140.91,328.4052,139.577,329.6646,137.2312Z"/><path class="cls-5" d="M182.9236,139.8927a31.1607,31.1607,0,0,0-8.0213,5.3476,34.6917,34.6917,0,0,0-6.9519,9.2691,48.614,48.614,0,0,0-4.6345,11.4081,5.1869,5.1869,0,0,0-2.852,1.2477,6.2088,6.2088,0,0,0-.1783,8.3779c1.1564,1.2252,3.6069,2.5937,5.7041,1.426a4.6508,4.6508,0,0,0,2.139-4.4563,2.0509,2.0509,0,0,0,2.3172-.5348,2.1948,2.1948,0,0,0-1.426-2.852,13.6983,13.6983,0,0,1,0-4.4563c.3556-2.1157,1.0144-2.8551,3.03-6.7736,2.862-5.5631,2.7141-6.3666,4.4563-8.0213a30.6918,30.6918,0,0,1,3.5651-2.852c2.0924-1.3995,3.0574-1.6125,3.565-2.6738C184.0084,143.5717,184.183,142.2386,182.9236,139.8927Z"/><path class="cls-5" d="M268.3923,10.3529a52.8586,52.8586,0,0,0-26.6577,4.37,59.8549,59.8549,0,0,0-20.9765,15.2953c-15.5516,17.6051-12.1005,34.6029-27.5317,82.5952a76.8755,76.8755,0,0,0-3.0591,9.1772c-1.0134,4.1774-2.19,11.0827-.874,24.91a186.8966,186.8966,0,0,0,4.37,24.91c4.0168,17.208,6.1406,25.9513,11.7993,32.7758,5.2681,6.3535,11.1384,9.4412,15.7324,11.7993,17.564,9.0157,34.7985,7.4494,47.6342,6.1181,15.4489-1.6022,29.8408-3.0949,43.7011-13.9843a65.0708,65.0708,0,0,0,20.1025-27.5317c4.4936-11.3471,4.2222-22.4318,3.4961-44.1381-.4833-14.45-1.025-28.4438-5.2441-46.76-2.1683-9.4135-5.4762-23.3554-13.9844-39.768-5.9176-11.4155-10.407-19.8509-20.1025-27.5317C292.7022,19.3444,283.0055,11.8679,268.3923,10.3529Z"/><path class="cls-6" d="M260.5261,7.09a52.8609,52.8609,0,0,0-26.6577,4.37,59.8557,59.8557,0,0,0-20.9765,15.2954c-15.5516,17.6051-12.1,34.6029-27.5317,82.5951a76.8793,76.8793,0,0,0-3.0591,9.1773c-1.0134,4.1774-2.19,11.0827-.874,24.91a186.8937,186.8937,0,0,0,4.37,24.91c4.0168,17.2081,6.1406,25.9514,11.7993,32.7759,5.2681,6.3534,11.1384,9.4412,15.7324,11.7993,17.564,9.0157,34.7985,7.4494,47.6342,6.1181,15.4489-1.6023,29.8408-3.0949,43.7011-13.9843a65.0708,65.0708,0,0,0,20.1025-27.5317c4.4936-11.3471,4.2222-22.4318,3.4961-44.1382-.4833-14.45-1.025-28.4438-5.2441-46.76-2.1683-9.4135-5.4762-23.3554-13.9844-39.7681-5.9176-11.4154-10.407-19.8508-20.1025-27.5317C284.836,16.0815,275.1393,8.605,260.5261,7.09Z"/><path class="cls-6" d="M257.9528,130.853h7.5581c3.9231,0,7.6814-3.45,7.5-7.5a7.6305,7.6305,0,0,0-7.5-7.5h-7.5581c-3.923,0-7.6814,3.45-7.5,7.5a7.6307,7.6307,0,0,0,7.5,7.5Z"/><circle class="cls-7" cx="231.2694" cy="127.7336" r="7.968"/><circle class="cls-7" cx="282.9622" cy="128.7375" r="7.968"/><ellipse class="cls-8" cx="288.8854" cy="152.6306" rx="9.4827" ry="6.0223"/><circle class="cls-9" cx="235.2534" cy="124.9782" r="1.992"/><circle class="cls-9" cx="285.694" cy="125.3278" r="1.992"/><ellipse class="cls-8" cx="219.8998" cy="153.6032" rx="9.4827" ry="6.0223"/><path class="cls-10" d="M246.0607,153.6032a12.099,12.099,0,0,0,2.0071,4.9175,12.3454,12.3454,0,0,0,5.0178,4.1146,12.7217,12.7217,0,0,0,8.1288.7024,11.1042,11.1042,0,0,0,6.0214-3.4121,10.8176,10.8176,0,0,0,2.6092-6.3224"/><path class="cls-10" d="M218.6133,115.2567a9.0633,9.0633,0,0,1,1.5611-2.1083,9.7894,9.7894,0,0,1,4.1749-2.4124s.3785-.1065,3.6694-.5473h0"/><path class="cls-10" d="M296.7586,113.01a9.0585,9.0585,0,0,0-1.4272-2.2012,9.79,9.79,0,0,0-4.0171-2.667s-.3711-.13-3.6283-.774h0"/><ellipse class="cls-11" cx="285.9688" cy="122.3897" rx="23.988" ry="21.822"/><ellipse class="cls-11" cx="229.9369" cy="124.3162" rx="23.988" ry="21.822"/><line class="cls-11" x1="253.9248" y1="124.3162" x2="263.0395" y2="124.3162"/><path class="cls-12" d="M222.1447,193.8985a42.49,42.49,0,0,0,13.9014.0337c-4.435,3.1045-11.9747,3.548-16.0548-.3761Z"/><path class="cls-12" d="M280.0949,64.9483a42.4892,42.4892,0,0,0,13.9014.0337c-4.4351,3.1046-11.9747,3.5481-16.0549-.376Z"/><path class="cls-12" d="M231.3714,43.7249a42.4894,42.4894,0,0,0,5.3219.5541,42.5959,42.5959,0,0,0,8.5795-.52c-4.4351,3.1046-11.9747,3.5481-16.0549-.376Z"/><path class="cls-12" d="M212.7394,78.1666a42.4892,42.4892,0,0,0,13.9014.0337c-4.4351,3.1045-11.9747,3.548-16.0549-.3761Z"/><path class="cls-12" d="M273.5288,201.3846a42.4892,42.4892,0,0,0,13.9014.0337c-4.4351,3.1046-11.9747,3.5481-16.0549-.376Z"/><path class="cls-12" d="M265.5013,28.9867a42.4756,42.4756,0,0,0,5.3219.554,42.6029,42.6029,0,0,0,8.5795-.52c-4.435,3.1045-11.9747,3.548-16.0548-.3761Z"/><path class="cls-12" d="M248.0508,64.2247a42.49,42.49,0,0,0,13.9014.0337c-4.435,3.1045-11.9747,3.548-16.0548-.3761Z"/><path class="cls-12" d="M291.0586,179.66a42.49,42.49,0,0,0,13.9014.0337c-4.4351,3.1045-11.9747,3.548-16.0548-.3761Z"/><path class="cls-9" d="M247.49,16.6932a56.6853,56.6853,0,0,0-35.0509,25.66,54.85,54.85,0,0,0-5.2826,11.6223,4.2852,4.2852,0,0,0,2.9684,5.228,4.3454,4.3454,0,0,0,5.228-2.9684c.2439-.7543.5011-1.5039.7794-2.2462.15-.3994.3067-.7957.4646-1.1919.0233-.0586.26-.62.0666-.167-.2179.5115.2276-.508.2228-.4974q1.011-2.2484,2.2421-4.3887,1.228-2.1384,2.6581-4.1519.37-.5216.7535-1.0337.1641-.22.33-.4377c-.0994.13-.4969.6224.01-.0044.5369-.6636,1.08-1.3211,1.6438-1.9619q1.6317-1.8534,3.43-3.5509.8646-.8162,1.7649-1.5936.4846-.4182.98-.8246.212-.1743.4255-.3466c.0791-.0637.8645-.6778.4326-.3459-.3265.2508.4583-.34.5922-.4382q.516-.3786,1.0408-.745,1.05-.7317,2.134-1.4121,2.1667-1.359,4.46-2.5007c.8181-.4068,1.6492-.7826,2.4845-1.1525.4474-.1981-.1179.0523-.1739.0741.2835-.1105.5643-.228.848-.3382q.5957-.2316,1.1971-.4481a49.7374,49.7374,0,0,1,5.61-1.642,4.2863,4.2863,0,0,0,2.9684-5.228,4.3429,4.3429,0,0,0-5.228-2.9684Z"/></svg>