<svg xmlns="http://www.w3.org/2000/svg" viewBox="0 0 186.863 251.2534"><defs><style>.cls-1{fill:#fff;}.cls-2{fill:#e66548;}.cls-3{fill:#fdf6c8;}.cls-4{fill:#fafae4;}.cls-5{fill:#fcf8e3;}.cls-6{fill:#fcf6c9;}</style></defs><g id="Layer_2" data-name="Layer 2"><polygon class="cls-1" points="140.978 242.542 38.538 242.542 27.398 120.882 162.125 120.882 140.978 242.542"/><polygon class="cls-2" points="49.016 240.302 34.942 242.542 6.859 109.601 27.693 106.286 49.016 240.302"/><polygon class="cls-2" points="131.552 242.683 145.571 245.249 176.739 112.998 155.988 109.199 131.552 242.683"/><polygon class="cls-2" points="84.007 244.787 62.761 244.787 52.558 109.085 84.007 109.085 84.007 244.787"/><polygon class="cls-2" points="100.103 245.075 121.349 245.075 131.552 109.373 100.103 109.373 100.103 245.075"/><rect class="cls-1" y="97.3254" width="178.7679" height="23.5564" rx="8.7296"/><rect class="cls-1" x="29.4206" y="238.3494" width="122.037" height="8.3843" rx="4.1922"/></g><g id="Layer_3" data-name="Layer 3"><circle class="cls-3" cx="23.8682" cy="94.2374" r="15.1327"/><ellipse class="cls-3" cx="28.0531" cy="72.4039" rx="21.5559" ry="19.5962" transform="translate(-29.0731 19.8121) rotate(-26.1876)"/><circle class="cls-3" cx="53.9097" cy="71.9413" r="13.173"/><circle class="cls-4" cx="27.2375" cy="93.9189" r="13.4962"/><ellipse class="cls-5" cx="33.8021" cy="76.6539" rx="17.2052" ry="15.6411" transform="translate(-13.1655 7.2821) rotate(-10.3035)"/><circle class="cls-4" cx="53.7531" cy="81.9472" r="10.5143"/><circle class="cls-6" cx="39.0042" cy="76.6539" r="6.708"/><circle class="cls-3" cx="54.141" cy="93.0597" r="15.1327"/><ellipse class="cls-3" cx="72.5766" cy="80.6363" rx="19.5962" ry="21.5559" transform="translate(-27.2851 123.0299) rotate(-71.0135)"/><circle class="cls-3" cx="91.1325" cy="98.649" r="13.173"/><circle class="cls-4" cx="56.7422" cy="95.2249" r="13.4962"/><ellipse class="cls-5" cx="73.6151" cy="87.7098" rx="15.6411" ry="17.2052" transform="translate(-40.4335 97.9613) rotate(-55.1295)"/><circle class="cls-4" cx="83.9254" cy="105.5915" r="10.5143"/><circle class="cls-6" cx="77.2824" cy="91.3994" r="6.708"/><circle class="cls-3" cx="49.3692" cy="51.0568" r="11.7827"/><ellipse class="cls-3" cx="66.0623" cy="46.4785" rx="15.2581" ry="16.7839" transform="translate(-11.0801 70.4269) rotate(-52.3752)"/><circle class="cls-3" cx="75.2702" cy="64.3855" r="10.2568"/><circle class="cls-4" cx="50.7495" cy="53.3015" r="10.5085"/><ellipse class="cls-5" cx="65.0683" cy="51.9556" rx="12.1786" ry="13.3964" transform="matrix(0.8039, -0.5947, 0.5947, 0.8039, -18.1412, 48.882)"/><circle class="cls-4" cx="68.2253" cy="67.7143" r="8.1867"/><circle class="cls-6" cx="66.8558" cy="55.5904" r="5.223"/><circle class="cls-3" cx="83.8646" cy="52.6207" r="15.1327"/><ellipse class="cls-3" cx="88.0495" cy="30.7872" rx="21.5559" ry="19.5962" transform="translate(-4.5488 42.0174) rotate(-26.1876)"/><circle class="cls-3" cx="113.9061" cy="30.3246" r="13.173"/><circle class="cls-4" cx="87.2339" cy="52.3021" r="13.4962"/><ellipse class="cls-5" cx="93.7985" cy="35.0371" rx="17.2052" ry="15.6411" transform="translate(-4.7542 17.3421) rotate(-10.3035)"/><circle class="cls-4" cx="113.7495" cy="40.3304" r="10.5143"/><circle class="cls-6" cx="99.0006" cy="35.0371" r="6.708"/><circle class="cls-3" cx="83.8264" cy="71.6447" r="15.1327"/><ellipse class="cls-3" cx="105.7501" cy="67.9614" rx="19.5962" ry="21.5559" transform="translate(-16.3016 98.0483) rotate(-46.5751)"/><circle class="cls-3" cx="115.1913" cy="92.0371" r="13.173"/><circle class="cls-4" cx="85.2988" cy="74.692" r="13.4962"/><ellipse class="cls-5" cx="103.7692" cy="74.8308" rx="15.6411" ry="17.2052" transform="translate(-23.6595 63.4461) rotate(-30.6911)"/><circle class="cls-4" cx="105.7577" cy="95.376" r="10.5143"/><circle class="cls-6" cx="105.5814" cy="79.707" r="6.708"/><circle class="cls-3" cx="33.2461" cy="48.8689" r="8.0768"/><ellipse class="cls-3" cx="35.4798" cy="37.2156" rx="11.5051" ry="10.4592" transform="translate(-12.7818 19.4777) rotate(-26.1876)"/><circle class="cls-3" cx="49.2803" cy="36.9687" r="7.0309"/><circle class="cls-4" cx="35.0445" cy="48.6988" r="7.2034"/><ellipse class="cls-5" cx="38.5482" cy="39.4839" rx="9.183" ry="8.3482" transform="translate(-6.4406 7.5316) rotate(-10.3035)"/><circle class="cls-4" cx="49.1967" cy="42.3091" r="5.6118"/><circle class="cls-6" cx="41.3248" cy="39.4839" r="3.5803"/><circle class="cls-3" cx="53.7855" cy="33.9664" r="6.3913"/><ellipse class="cls-3" cx="55.5531" cy="24.7449" rx="9.1042" ry="8.2766" transform="translate(-5.2179 27.0562) rotate(-26.1876)"/><circle class="cls-3" cx="66.4737" cy="24.5495" r="5.5637"/><circle class="cls-4" cx="55.2086" cy="33.8318" r="5.7002"/><ellipse class="cls-5" cx="57.9811" cy="26.5399" rx="7.2667" ry="6.6061" transform="translate(-3.812 10.7987) rotate(-10.3035)"/><circle class="cls-4" cx="66.4075" cy="28.7755" r="4.4408"/><circle class="cls-6" cx="60.1783" cy="26.5399" r="2.8331"/><circle class="cls-3" cx="131.2556" cy="95.2665" r="10.0336"/><ellipse class="cls-3" cx="134.0304" cy="80.79" rx="14.2924" ry="12.9931" transform="translate(-21.8959 67.4419) rotate(-26.1876)"/><circle class="cls-3" cx="151.1744" cy="80.4833" r="8.7343"/><circle class="cls-4" cx="133.4896" cy="95.0553" r="8.9485"/><ellipse class="cls-5" cx="137.8422" cy="83.6079" rx="11.4078" ry="10.3707" transform="translate(-12.7315 26.0031) rotate(-10.3035)"/><circle class="cls-4" cx="151.0705" cy="87.1175" r="6.9714"/><circle class="cls-6" cx="141.2914" cy="83.6079" r="4.4477"/><circle class="cls-3" cx="125.2691" cy="53.1837" r="12.7814"/><ellipse class="cls-3" cx="144.045" cy="53.363" rx="16.5514" ry="18.2065" transform="translate(-3.4947 96.1252) rotate(-36.4911)"/><circle class="cls-3" cx="148.3356" cy="74.7799" r="11.1262"/><circle class="cls-4" cx="125.2691" cy="60.8145" r="11.3992"/><ellipse class="cls-5" cx="141.3818" cy="58.7824" rx="13.2108" ry="14.5319" transform="translate(-11.6427 53.5215) rotate(-20.6071)"/><circle class="cls-4" cx="139.9971" cy="76.1613" r="8.8806"/><circle class="cls-6" cx="142.1677" cy="63.1054" r="5.6657"/><circle class="cls-3" cx="98.875" cy="19.4302" r="6.9098"/><ellipse class="cls-3" cx="105.7269" cy="11.9406" rx="8.9479" ry="9.8427" transform="translate(83.8609 116.0685) rotate(-84.5842)"/><circle class="cls-3" cx="115.8931" cy="17.9477" r="6.015"/><circle class="cls-4" cx="100.2616" cy="20.1125" r="6.1626"/><ellipse class="cls-5" cx="106.9457" cy="14.969" rx="7.142" ry="7.8562" transform="translate(54.1514 109.1721) rotate(-68.7002)"/><circle class="cls-4" cx="113.438" cy="21.8014" r="4.801"/><circle class="cls-6" cx="108.9688" cy="16.2138" r="3.063"/><circle class="cls-3" cx="119.1924" cy="34.5044" r="8.6917"/><ellipse class="cls-3" cx="131.9559" cy="34.1411" rx="11.2554" ry="12.381" transform="translate(7.5968 89.9334) rotate(-38.6689)"/><circle class="cls-3" cx="135.425" cy="48.5838" r="7.5662"/><circle class="cls-4" cx="119.7893" cy="36.3544" r="7.7518"/><ellipse class="cls-5" cx="130.2862" cy="37.8926" rx="8.9838" ry="9.8821" transform="translate(-4.5079 53.4132) rotate(-22.7849)"/><circle class="cls-4" cx="129.7944" cy="49.738" r="6.0391"/><circle class="cls-6" cx="130.932" cy="40.8099" r="3.8528"/><circle class="cls-3" cx="140.1142" cy="85.5489" r="13.3057"/><ellipse class="cls-3" cx="159.3785" cy="82.2365" rx="17.2304" ry="18.9534" transform="translate(-9.677 142.1079) rotate(-46.7947)"/><circle class="cls-3" cx="167.7609" cy="103.3735" r="11.5826"/><circle class="cls-4" cx="141.4191" cy="88.2233" r="11.8668"/><ellipse class="cls-5" cx="157.6598" cy="88.2831" rx="13.7528" ry="15.128" transform="translate(-22.9586 93.5288) rotate(-30.9106)"/><circle class="cls-4" cx="159.4775" cy="106.341" r="9.2449"/><circle class="cls-6" cx="159.2697" cy="92.5645" r="5.8981"/><circle class="cls-3" cx="129.0576" cy="19.2083" r="10.0336"/><ellipse class="cls-3" cx="143.723" cy="20.6897" rx="12.9931" ry="14.2924" transform="translate(10.1393 77.6085) rotate(-31.2702)"/><circle class="cls-3" cx="145.5473" cy="37.7391" r="8.7343"/><circle class="cls-4" cx="129.4659" cy="21.4148" r="8.9485"/><ellipse class="cls-5" cx="141.2539" cy="24.7361" rx="10.3707" ry="11.4078" transform="translate(-1.5005 38.3644) rotate(-15.3861)"/><circle class="cls-4" cx="138.9299" cy="38.2234" r="6.9714"/><circle class="cls-6" cx="141.5595" cy="28.1718" r="4.4477"/><circle class="cls-3" cx="146.6946" cy="54.3425" r="11.3615"/><ellipse class="cls-3" cx="163.0247" cy="50.891" rx="14.7127" ry="16.184" transform="translate(17.6199 140.4699) rotate(-48.9725)"/><circle class="cls-3" cx="170.863" cy="68.6545" r="9.8902"/><circle class="cls-4" cx="147.8948" cy="56.5821" r="10.1328"/><ellipse class="cls-5" cx="161.7545" cy="56.1062" rx="11.7433" ry="12.9176" transform="translate(-4.3983 97.4058) rotate(-33.0884)"/><circle class="cls-4" cx="163.8914" cy="71.4554" r="7.8941"/><circle class="cls-6" cx="163.267" cy="59.7071" r="5.0363"/></g></svg>