<svg xmlns="http://www.w3.org/2000/svg" viewBox="0 0 452.5141 559.2148"><defs><style>.cls-1{fill:#daa041;}.cls-2{fill:#e8bf6f;}.cls-3{fill:#231f20;}.cls-4{fill:#dea6a5;}.cls-5{fill:#fff;}.cls-6,.cls-7{fill:none;stroke-miterlimit:10;}.cls-6{stroke:#231f20;stroke-width:3px;}.cls-7{stroke:#414042;stroke-width:5px;}.cls-8{fill:#d5a44b;}</style></defs><g id="arms_legs" data-name="arms&amp;legs"><path class="cls-1" d="M179.8982,491.6544c-1.0894,28.2415-3.8042,35.1883-6.3331,35.4656-1.93.2115-2.907-3.5529-8.233-5.7a17.8641,17.8641,0,0,0-12.6662,0,14.92,14.92,0,0,0-8.2331,7.6c-.3422.7816-2.7063,6.1789,0,10.7663,1.7366,2.9434,4.6588,4.0254,7.6,5.0665,4.6159,1.6341,8.3018,1.5654,16.4663,1.2668,6.4294-.2353,11.6773-.4683,15.1994-.6334a74.7249,74.7249,0,0,1,1.9-23.4327c.975-3.8769,2.7333-9.3708,4.4331-18.366.6-3.1773,1.0093-5.8166,1.2667-7.6Z"/><path class="cls-1" d="M277.1949,491.6544c1.0895,28.2415,3.8043,35.1883,6.3331,35.4656,1.93.2115,2.907-3.5529,8.2331-5.7a17.8642,17.8642,0,0,1,12.6662,0,14.92,14.92,0,0,1,8.233,7.6c.3423.7816,2.7064,6.1789,0,10.7663-1.7365,2.9434-4.6587,4.0254-7.6,5.0665-4.6158,1.6341-8.3018,1.5654-16.4663,1.2668-6.4293-.2353-11.6773-.4683-15.1994-.6334a74.7285,74.7285,0,0,0-1.9-23.4327c-.9751-3.8769-2.7334-9.3708-4.4332-18.366-.6-3.1773-1.0093-5.8166-1.2667-7.6Z"/><path class="cls-1" d="M390.6429,304.8806A70.2626,70.2626,0,0,1,408.729,316.938c7.9192,7.2936,12.094,14.5544,15.6747,20.8995a109.6141,109.6141,0,0,1,10.45,25.7225,11.6959,11.6959,0,0,1,6.4306,2.8134c4.8947,4.4673,5.2735,13.7286.402,18.89-2.6074,2.7626-8.1328,5.8483-12.8613,3.2153-3.2464-1.8076-5.1155-5.7529-4.823-10.0478-2.218.686-4.4145.0919-5.2248-1.2058-1.0536-1.687-.0717-5.0555,3.2153-6.4306a30.8824,30.8824,0,0,0,0-10.0478c-.8017-4.7705-2.2872-6.4377-6.8326-15.2727-6.4531-12.5436-6.1194-14.3552-10.0478-18.0861a69.2158,69.2158,0,0,0-8.0384-6.4307c-4.7178-3.1554-6.8937-3.6357-8.0382-6.0287C388.1969,313.1758,387.8033,310.17,390.6429,304.8806Z"/><path class="cls-1" d="M59.7778,310.8816a70.2649,70.2649,0,0,0-18.086,12.0575c-7.9192,7.2935-12.0941,14.5544-15.6747,20.8995a109.6044,109.6044,0,0,0-10.45,25.7224,11.6966,11.6966,0,0,0-6.4307,2.8134c-4.8946,4.4673-5.2734,13.7287-.4019,18.89,2.6074,2.7625,8.1327,5.8483,12.8613,3.2153,3.2463-1.8077,5.1154-5.7529,4.8229-10.0478,2.218.686,4.4145.0918,5.2249-1.2058,1.0535-1.6871.0717-5.0555-3.2154-6.4306a30.8831,30.8831,0,0,1,0-10.0479c.8017-4.77,2.2873-6.4376,6.8326-15.2727,6.4532-12.5436,6.12-14.3551,10.0478-18.0861a69.2182,69.2182,0,0,1,8.0384-6.4306c4.7179-3.1554,6.8938-3.6358,8.0382-6.0287C62.2239,319.1769,62.6175,316.1709,59.7778,310.8816Z"/></g><g id="BODY"><path class="cls-1" d="M252.4889,18.801c-29.2053-3.028-51.3987,6.1344-60.1066,9.8535a134.9618,134.9618,0,0,0-47.2969,34.4874c-35.065,39.6951-27.2836,78.0209-62.0772,186.2317-.9975,3.102-4.3846,10.3338-6.8975,20.6924-2.285,9.419-4.9388,24.9889-1.9707,56.1651.5512,5.7895,2.4841,24.5942,9.8535,56.1651,9.0568,38.8,13.8456,58.514,26.6045,73.9014,11.8784,14.3256,25.1145,21.2876,35.4728,26.6046,39.6025,20.3282,78.462,16.7966,107.4034,13.7949,34.8334-3.6127,67.2836-6.9783,98.5353-31.5312,29.5093-23.1841,41.4537-52.2984,45.3262-62.0773,10.1319-25.5849,9.52-50.5782,7.8829-99.5206-1.09-32.58-2.3113-64.1338-11.8243-105.4328-4.889-21.225-12.3475-52.6607-31.5313-89.6671-13.3428-25.739-23.4653-44.7587-45.3262-62.0772C307.3017,39.0747,285.4381,22.2171,252.4889,18.801Z"/><path class="cls-2" d="M234.7525,11.4439c-29.2052-3.028-51.3986,6.1344-60.1065,9.8535a134.9619,134.9619,0,0,0-47.297,34.4874C92.284,95.48,100.0654,133.8057,65.2718,242.0165c-.9974,3.102-4.3846,10.3338-6.8975,20.6924-2.2849,9.419-4.9388,24.9889-1.9707,56.1651.5512,5.7895,2.4842,24.5942,9.8536,56.1651,9.0568,38.8,13.8456,58.514,26.6045,73.9014,11.8784,14.3256,25.1144,21.2876,35.4727,26.6046,39.6025,20.3282,78.4621,16.7966,107.4035,13.7949,34.8333-3.6127,67.2835-6.9783,98.5352-31.5312,29.5094-23.1841,41.4538-52.2984,45.3263-62.0773,10.1318-25.5849,9.52-50.5782,7.8828-99.5206-1.09-32.58-2.3113-64.1338-11.8242-105.4328-4.8891-21.225-12.3476-52.6607-31.5313-89.6671-13.3428-25.739-23.4653-44.7587-45.3262-62.0772C289.5654,31.7176,267.7018,14.86,234.7525,11.4439Z"/><path class="cls-2" d="M228.9505,281.0885h17.0414c9.6518,0,9.6678-15,0-15H228.9505c-9.6518,0-9.6678,15,0,15Z"/></g><g id="FACE"><circle class="cls-3" cx="168.7858" cy="283.4657" r="17.9659"/><circle class="cls-3" cx="285.3403" cy="285.7294" r="17.9659"/><ellipse class="cls-4" cx="298.6958" cy="339.6024" rx="21.3811" ry="13.5788"/><circle class="cls-5" cx="177.7687" cy="277.2531" r="4.4915"/><circle class="cls-5" cx="291.4999" cy="278.0413" r="4.4915"/><ellipse class="cls-4" cx="143.1503" cy="341.7954" rx="21.3811" ry="13.5788"/></g><g id="Layer_4" data-name="Layer 4"><path class="cls-6" d="M202.1365,341.7954a27.2834,27.2834,0,0,0,4.5256,11.0876A27.8327,27.8327,0,0,0,217.976,362.16a28.6849,28.6849,0,0,0,18.3285,1.584,25.04,25.04,0,0,0,13.5767-7.6935,24.3916,24.3916,0,0,0,5.8832-14.2555"/><path class="cls-6" d="M140.25,255.3335a20.4282,20.4282,0,0,1,3.52-4.7538,22.0743,22.0743,0,0,1,9.4135-5.4394s.8533-.24,8.2735-1.234h0"/><path class="cls-6" d="M316.4479,250.2671a20.4321,20.4321,0,0,0-3.2179-4.9631,22.0751,22.0751,0,0,0-9.0577-6.0133s-.8367-.2926-8.1809-1.7453h0"/></g><g id="glasses"><ellipse class="cls-7" cx="292.1197" cy="271.4166" rx="54.087" ry="49.2033"/><ellipse class="cls-7" cx="165.7813" cy="275.7604" rx="54.087" ry="49.2033"/><line class="cls-7" x1="219.8682" y1="275.7604" x2="240.4196" y2="275.7604"/></g><g id="Layer_6" data-name="Layer 6"><path class="cls-8" d="M148.212,432.6514a95.8051,95.8051,0,0,0,31.3442.0759c-10,7-27,8-36.2-.8479Z"/><path class="cls-8" d="M278.8753,141.9a95.8,95.8,0,0,0,31.3442.076c-10,7-27,8-36.2-.8479Z"/><path class="cls-8" d="M169.0158,94.0468a95.7756,95.7756,0,0,0,11.9995,1.2493A96.0478,96.0478,0,0,0,200.36,94.1228c-10,7-27,8-36.2-.8479Z"/><path class="cls-8" d="M127.0051,171.7043a95.8011,95.8011,0,0,0,31.3443.076c-10,7-27,8-36.2-.8479Z"/><path class="cls-8" d="M264.07,449.5308a95.8056,95.8056,0,0,0,31.3443.0759c-10,7-27,8-36.2-.8479Z"/><path class="cls-8" d="M245.9705,60.8157a95.79,95.79,0,0,0,12,1.2493,96.0471,96.0471,0,0,0,19.3447-1.1734c-10,7-27,8-36.2-.8479Z"/><path class="cls-8" d="M206.6238,140.2688a95.8056,95.8056,0,0,0,31.3443.0759c-10,7-27,8-36.2-.8479Z"/><path class="cls-8" d="M303.5958,400.5477a95.8081,95.8081,0,0,0,31.3442.076c-10,7-27,8-36.2-.8479Z"/><path class="cls-5" d="M206.776,38.2392a117.5023,117.5023,0,0,0-43.1622,19.929,124.7352,124.7352,0,0,0-32.7133,35.528,116.7247,116.7247,0,0,0-11.342,24.88,4.2859,4.2859,0,0,0,2.9684,5.228,4.3444,4.3444,0,0,0,5.228-2.9684q.8941-2.7862,1.93-5.5236.4866-1.281,1.0059-2.5493c.1019-.249.5273-1.245.2053-.5016.2177-.5027.4339-1.0061.6564-1.5068a112.3464,112.3464,0,0,1,5.2029-10.2523q2.8615-4.9907,6.21-9.68.7959-1.1155,1.6176-2.2123.4384-.585.8838-1.1645c-.0993.1293-.4924.6276.0078-.0061.1888-.239.3768-.4787.5665-.717q1.7649-2.2167,3.6337-4.3479,3.7986-4.3308,8-8.2846,2.0646-1.9426,4.219-3.7869,1.1115-.9514,2.246-1.8756.4962-.4044.9969-.8031.2859-.228.5733-.4542c.2726-.2145.6255-.4894.15-.1219a117.1157,117.1157,0,0,1,19.486-12.1948c1.9093-.948,3.85-1.821,5.8-2.68.5952-.2624-.6083.2487-.0064.0018.2815-.1154.562-.2333.8438-.3481q.7606-.31,1.526-.609,1.4454-.5648,2.9062-1.0894a110.3925,110.3925,0,0,1,12.6211-3.6921,4.2855,4.2855,0,0,0,2.9684-5.228,4.3438,4.3438,0,0,0-5.228-2.9684Z"/></g></svg>